<svg xmlns="http://www.w3.org/2000/svg" viewBox="0 0 64 64" fill="none">
  <defs>
    <linearGradient id="g1" x1="0%" y1="0%" x2="100%" y2="100%">
      <stop offset="0%" style="stop-color:#1b65d4;stop-opacity:1" />
      <stop offset="100%" style="stop-color:#4f9cf7;stop-opacity:1" />
    </linearGradient>
    <linearGradient id="g2" x1="0%" y1="0%" x2="100%" y2="100%">
      <stop offset="0%" style="stop-color:#0f9d58;stop-opacity:1" />
      <stop offset="100%" style="stop-color:#34d399;stop-opacity:1" />
    </linearGradient>
  </defs>
  <!-- Fondo redondeado -->
  <rect width="64" height="64" rx="14" fill="#0b1d3a"/>
  <!-- Cubo -->
  <g transform="translate(7, 6)">
    <path d="M12 20 L25 13 L38 20 L38 38 L25 45 L12 38 Z" fill="url(#g1)" opacity="0.9"/>
    <path d="M25 13 L38 20 L25 27 L12 20 Z" fill="#4f9cf7" opacity="0.7"/>
    <path d="M38 20 L38 38 L25 45 L25 27 Z" fill="#0e4bad" opacity="0.8"/>
    <line x1="25" y1="27" x2="25" y2="45" stroke="#fff" stroke-width="1" opacity="0.3"/>
    <line x1="12" y1="20" x2="25" y2="27" stroke="#fff" stroke-width="1" opacity="0.3"/>
    <line x1="38" y1="20" x2="25" y2="27" stroke="#fff" stroke-width="1" opacity="0.3"/>
    <circle cx="25" cy="26" r="7" fill="url(#g2)" opacity="0.95"/>
    <polyline points="21,26 24,29 29,23" stroke="#fff" stroke-width="2" stroke-linecap="round" stroke-linejoin="round" fill="none"/>
  </g>
</svg>